<svg xmlns="http://www.w3.org/2000/svg" viewBox="0 0 400 300" width="406" height="306" class="illustration styles_illustrationTablet__1DWOa"><g id="_202_soccer_outline" data-name="#202_soccer_outline"><rect x="120.58" y="83.71" width="177.26" height="122.71" rx="5.76" fill="#fff"></rect><path d="M292.08,207.42H126.34a6.77,6.77,0,0,1-6.76-6.76V89.47a6.77,6.77,0,0,1,6.76-6.76H292.08a6.77,6.77,0,0,1,6.76,6.76V200.66A6.77,6.77,0,0,1,292.08,207.42ZM126.34,84.71a4.77,4.77,0,0,0-4.76,4.76V200.66a4.77,4.77,0,0,0,4.76,4.76H292.08a4.76,4.76,0,0,0,4.76-4.76V89.47a4.76,4.76,0,0,0-4.76-4.76Z" fill="#093f68"></path><path d="M288.4,95.74v98.65a3.92,3.92,0,0,1-3.92,3.91H134a3.91,3.91,0,0,1-3.92-3.91V95.74A3.92,3.92,0,0,1,134,91.82H284.48A3.93,3.93,0,0,1,288.4,95.74Z" fill="#68e1fd"></path><path d="M284.48,199.3H134a4.92,4.92,0,0,1-4.93-4.91V95.74A4.93,4.93,0,0,1,134,90.82H284.48a4.93,4.93,0,0,1,4.92,4.92v98.65A4.92,4.92,0,0,1,284.48,199.3ZM134,92.82A2.93,2.93,0,0,0,131,95.74v98.65A2.92,2.92,0,0,0,134,197.3H284.48a2.91,2.91,0,0,0,2.92-2.91V95.74a2.92,2.92,0,0,0-2.92-2.92Z" fill="#093f68"></path><path d="M209.21,199.31a1,1,0,0,1-1-1V91.82a1,1,0,1,1,2,0V198.31A1,1,0,0,1,209.21,199.31Z" fill="#093f68"></path><path d="M209.21,166.29a21.23,21.23,0,1,1,21.23-21.23A21.25,21.25,0,0,1,209.21,166.29Zm0-40.45a19.23,19.23,0,1,0,19.23,19.22A19.24,19.24,0,0,0,209.21,125.84Z" fill="#093f68"></path><path d="M154.7,168.92H130a1,1,0,0,1-1-1V122.21a1,1,0,0,1,1-1H154.7a1,1,0,0,1,1,1v45.71A1,1,0,0,1,154.7,168.92Zm-23.67-2H153.7V123.21H131Z" fill="#093f68"></path><path d="M154.7,164.75a1,1,0,0,1-.55-.17,1,1,0,0,1-.45-.83V126.38a1,1,0,0,1,.45-.83,1,1,0,0,1,.93-.09,21.21,21.21,0,0,1,0,39.21A1,1,0,0,1,154.7,164.75Zm1-36.81v34.25a19.22,19.22,0,0,0,0-34.25Z" fill="#093f68"></path><path d="M288.4,168.92H263.72a1,1,0,0,1-1-1V122.21a1,1,0,0,1,1-1H288.4a1,1,0,0,1,1,1v45.71A1,1,0,0,1,288.4,168.92Zm-23.68-2H287.4V123.21H264.72Z" fill="#093f68"></path><path d="M263.72,164.75a1,1,0,0,1-.38-.08,21.22,21.22,0,0,1,0-39.22,1,1,0,0,1,.94.1,1,1,0,0,1,.44.83v37.37a1,1,0,0,1-1,1Zm-1-36.81a19.22,19.22,0,0,0,0,34.25Z" fill="#093f68"></path><path d="M288.4,188.91v5.48a3.92,3.92,0,0,1-3.92,3.91H279A9.4,9.4,0,0,1,288.4,188.91Z" fill="#68e1fd"></path><path d="M284.48,199.3H279a1,1,0,0,1-1-1,10.42,10.42,0,0,1,10.36-10.39h0a1,1,0,0,1,.7.29,1,1,0,0,1,.3.71v5.48A4.92,4.92,0,0,1,284.48,199.3Zm-4.39-2h4.39a2.91,2.91,0,0,0,2.92-2.91V190A8.44,8.44,0,0,0,280.09,197.3Z" fill="#093f68"></path><path d="M288.4,95.74v5.48a9.4,9.4,0,0,1-9.37-9.4h5.45A3.93,3.93,0,0,1,288.4,95.74Z" fill="#68e1fd"></path><path d="M288.4,102.22h0A10.42,10.42,0,0,1,278,91.82a1,1,0,0,1,1-1h5.45a4.93,4.93,0,0,1,4.92,4.92v5.48a1,1,0,0,1-.3.71A1,1,0,0,1,288.4,102.22Zm-8.31-9.4a8.44,8.44,0,0,0,7.31,7.34V95.74a2.92,2.92,0,0,0-2.92-2.92Z" fill="#093f68"></path><path d="M139.39,198.3H134a3.91,3.91,0,0,1-3.92-3.91v-5.48A9.39,9.39,0,0,1,139.39,198.3Z" fill="#68e1fd"></path><path d="M139.39,199.3H134a4.92,4.92,0,0,1-4.93-4.91v-5.48a1,1,0,0,1,.3-.71,1,1,0,0,1,.7-.29h0a10.42,10.42,0,0,1,10.36,10.39A1,1,0,0,1,139.39,199.3ZM131,190v4.42A2.92,2.92,0,0,0,134,197.3h4.38A8.44,8.44,0,0,0,131,190Z" fill="#093f68"></path><path d="M139.43,91.82a9.4,9.4,0,0,1-9.4,9.4V95.74A3.92,3.92,0,0,1,134,91.82Z" fill="#68e1fd"></path><path d="M130,102.22a1,1,0,0,1-1-1V95.74A4.93,4.93,0,0,1,134,90.82h5.48a1,1,0,0,1,1,1A10.41,10.41,0,0,1,130,102.22Zm3.93-9.4A2.93,2.93,0,0,0,131,95.74v4.42a8.4,8.4,0,0,0,7.35-7.34Z" fill="#093f68"></path><path d="M183.07,175.58a40.71,40.71,0,1,1-81.41,0c0-.81,0-1.61.08-2.41a40.7,40.7,0,0,1,81.25,0C183,174,183.07,174.77,183.07,175.58Z" fill="#fff"></path><path d="M142.37,217.29a41.68,41.68,0,0,1-41.7-41.71c0-.79,0-1.6.07-2.47a41.7,41.7,0,0,1,83.25,0c0,.87.08,1.68.08,2.47a41.69,41.69,0,0,1-41.7,41.71Zm0-81.4a39.68,39.68,0,0,0-39.63,37.33c0,.84-.07,1.61-.07,2.36a39.7,39.7,0,1,0,79.4,0c0-.75,0-1.52-.08-2.36a39.66,39.66,0,0,0-39.62-37.33Z" fill="#093f68"></path><polygon points="142.37 161.75 127.61 172.47 133.25 189.81 151.48 189.81 157.12 172.47 142.37 161.75" fill="#093f68"></polygon><path d="M151.48,190.81H133.25a1,1,0,0,1-.95-.69l-5.64-17.34a1,1,0,0,1,.37-1.12l14.75-10.72a1,1,0,0,1,1.17,0l14.76,10.72a1,1,0,0,1,.36,1.12l-5.64,17.34A1,1,0,0,1,151.48,190.81Zm-17.5-2h16.78l5.18-16L142.37,163l-13.58,9.86Z" fill="#093f68"></path><path d="M158.94,138.4l-16.57,12-16.57-12a40.87,40.87,0,0,1,33.14,0Z" fill="#093f68"></path><path d="M142.37,151.44a1.06,1.06,0,0,1-.59-.19l-16.57-12a1,1,0,0,1-.41-.91,1,1,0,0,1,.59-.81,41.84,41.84,0,0,1,34,0,1,1,0,0,1,.58.81,1,1,0,0,1-.4.91l-16.57,12A1.06,1.06,0,0,1,142.37,151.44Zm-14.55-12.8,14.55,10.56,14.55-10.56a39.87,39.87,0,0,0-29.1,0Z" fill="#093f68"></path><path d="M117.23,166.27l-15.49,6.9a40.57,40.57,0,0,1,13-27.48l.33.08L117.2,166Z" fill="#093f68"></path><path d="M101.74,174.17a1,1,0,0,1-1-1.06A41.46,41.46,0,0,1,114.06,145a1,1,0,0,1,.9-.24l.33.07a1,1,0,0,1,.78.87l2.15,20.51a1,1,0,0,1-.58,1l-15.49,6.9A1,1,0,0,1,101.74,174.17Zm12.51-26.62a39.38,39.38,0,0,0-11.38,24l13.29-5.92Z" fill="#093f68"></path><path d="M183,173.17l-15.49-6.9,0-.27,2.13-20.23.33-.07A40.53,40.53,0,0,1,183,173.17Z" fill="#093f68"></path><path d="M183,174.17a.93.93,0,0,1-.4-.09l-15.49-6.9a1,1,0,0,1-.59-1l0-.27,2.14-20.24a1,1,0,0,1,.79-.87l.33-.07a1,1,0,0,1,.88.25A41.4,41.4,0,0,1,184,173.11a1,1,0,0,1-1,1.06Zm-14.42-8.52,13.29,5.92a39.31,39.31,0,0,0-11.38-24Z" fill="#093f68"></path><path d="M178.18,194.93a40.78,40.78,0,0,1-23.38,19.42l3.84-17.49.23,0Z" fill="#093f68"></path><path d="M154.8,215.35a1,1,0,0,1-.67-.26,1,1,0,0,1-.3-1l3.83-17.49a1,1,0,0,1,.89-.78l.23,0,19.3-1.91a1,1,0,0,1,1,1.47,41.52,41.52,0,0,1-23.95,19.89A.81.81,0,0,1,154.8,215.35Zm4.66-17.56-3.3,15a39.49,39.49,0,0,0,20.19-16.71Z" fill="#093f68"></path><path d="M130,214.38a40.8,40.8,0,0,1-23.39-19.32l19.29,1.66,0,.06Z" fill="#093f68"></path><path d="M130,215.38a1.12,1.12,0,0,1-.31,0,41.51,41.51,0,0,1-24-19.8,1,1,0,0,1,0-1,1,1,0,0,1,.92-.45l19.3,1.67a1,1,0,0,1,.89.77L131,214.15a1,1,0,0,1-.29,1A1,1,0,0,1,130,215.38Zm-21.57-19.16a39.55,39.55,0,0,0,20.19,16.63l-3.53-15.19Z" fill="#093f68"></path><path d="M127.61,173.47a1,1,0,0,1-.52-.15l-13.74-8.53a1,1,0,0,1,1.05-1.69l13.74,8.52a1,1,0,0,1-.53,1.85Z" fill="#093f68"></path><path d="M157.1,173.47a1,1,0,0,1-.53-1.85l13.74-8.52a1,1,0,1,1,1.05,1.69l-13.74,8.53A1,1,0,0,1,157.1,173.47Z" fill="#093f68"></path><path d="M142.37,165.57a1,1,0,0,1-1-1V150.44a1,1,0,0,1,2,0v14.13A1,1,0,0,1,142.37,165.57Z" fill="#093f68"></path><path d="M123.17,200.41a1,1,0,0,1-.69-1.72l10.08-9.61a1,1,0,0,1,1.38,1.45l-10.08,9.61A1,1,0,0,1,123.17,200.41Z" fill="#093f68"></path><path d="M161.57,200.41a1,1,0,0,1-.69-.27l-10.09-9.61a1,1,0,0,1,1.38-1.45l10.09,9.61a1,1,0,0,1,0,1.41A1,1,0,0,1,161.57,200.41Z" fill="#093f68"></path><circle cx="241.65" cy="175.01" r="5.6" fill="#ffbc0e"></circle><path d="M241.65,181.61a6.61,6.61,0,1,1,6.61-6.6A6.61,6.61,0,0,1,241.65,181.61Zm0-11.21a4.61,4.61,0,1,0,4.61,4.61A4.61,4.61,0,0,0,241.65,170.4Z" fill="#093f68"></path><circle cx="250.18" cy="119.06" r="5.6" fill="#ffbc0e"></circle><path d="M250.18,125.67a6.61,6.61,0,1,1,6.61-6.61A6.61,6.61,0,0,1,250.18,125.67Zm0-11.21a4.61,4.61,0,1,0,4.61,4.6A4.61,4.61,0,0,0,250.18,114.46Z" fill="#093f68"></path><circle cx="186.05" cy="113.46" r="5.6" fill="#f56132"></circle><path d="M186.05,120.06a6.61,6.61,0,1,1,6.6-6.6A6.62,6.62,0,0,1,186.05,120.06Zm0-11.21a4.61,4.61,0,1,0,4.6,4.61A4.62,4.62,0,0,0,186.05,108.85Z" fill="#093f68"></path><circle cx="241.65" cy="142.27" r="5.6" fill="#f56132"></circle><path d="M241.65,148.87a6.61,6.61,0,1,1,6.61-6.6A6.61,6.61,0,0,1,241.65,148.87Zm0-11.21a4.61,4.61,0,1,0,4.61,4.61A4.61,4.61,0,0,0,241.65,137.66Z" fill="#093f68"></path><circle cx="208.28" cy="151.36" r="5.6" fill="#ffbc0e"></circle><path d="M208.28,158a6.61,6.61,0,1,1,6.61-6.61A6.62,6.62,0,0,1,208.28,158Zm0-11.21a4.61,4.61,0,1,0,4.61,4.6A4.61,4.61,0,0,0,208.28,146.76Z" fill="#093f68"></path><path d="M251.23,172.09a1,1,0,0,1-.29-2c.15,0,15.76-5,24.21-23.1a1,1,0,0,1,1.81.85c-8.84,18.88-24.76,24-25.44,24.16A.92.92,0,0,1,251.23,172.09Z" fill="#fff"></path><path d="M279,152.36a1,1,0,0,1-1-.79l-1.27-5.87-4.54,1.6a1,1,0,0,1-.66-1.89l5.61-2a1,1,0,0,1,.82.07,1,1,0,0,1,.49.66l1.5,7a1,1,0,0,1-.76,1.19Z" fill="#fff"></path><path d="M202.9,102.22a1,1,0,0,1-.12-2s.55-.07,1.56-.13a1,1,0,0,1,1,1,1,1,0,0,1-.94,1c-.91.05-1.41.11-1.43.11Z" fill="#fff"></path><path d="M237,109.76a1.07,1.07,0,0,1-.48-.12q-1.23-.67-2.46-1.29a1,1,0,1,1,.88-1.79c.85.42,1.7.86,2.55,1.33a1,1,0,0,1-.49,1.87ZM232,107.27a1.14,1.14,0,0,1-.4-.08c-.86-.38-1.72-.73-2.57-1a1,1,0,0,1,.71-1.87c.88.33,1.77.69,2.66,1.08a1,1,0,0,1,.52,1.32A1,1,0,0,1,232,107.27Zm-5.28-2a.84.84,0,0,1-.31,0c-.9-.29-1.79-.57-2.66-.81a1,1,0,0,1-.7-1.23,1,1,0,0,1,1.24-.7c.9.26,1.82.54,2.74.84a1,1,0,0,1,.64,1.27A1,1,0,0,1,226.67,105.25Zm-5.44-1.53a.91.91,0,0,1-.23,0c-.93-.21-1.84-.4-2.72-.57a1,1,0,0,1,.37-2c.91.18,1.85.37,2.81.6a1,1,0,0,1-.23,2Zm-5.56-1h-.14c-1-.14-1.89-.25-2.76-.33a1,1,0,0,1-.9-1.1,1,1,0,0,1,1.09-.89c.91.09,1.86.2,2.85.34a1,1,0,0,1-.14,2Zm-5.62-.55H210c-.94-.05-1.87-.08-2.78-.08a1,1,0,0,1,0-2h0c.94,0,1.91,0,2.88.08a1,1,0,0,1,0,2Z" fill="#fff"></path><path d="M240.74,112a1,1,0,0,1-.54-.16L239,111a1,1,0,0,1,1.05-1.7q.65.39,1.29.81a1,1,0,0,1-.55,1.84Z" fill="#fff"></path><path d="M196.83,148.87h-.18a57.17,57.17,0,0,1-22-9,1,1,0,0,1-.21-1.4,1,1,0,0,1,1.4-.21A55.89,55.89,0,0,0,197,146.89a1,1,0,0,1-.19,2Z" fill="#fff"></path><path d="M194.41,152.36a1,1,0,0,1-.47-1.88l3.62-1.94-2.65-5.86a1,1,0,1,1,1.82-.82l3,6.71a1,1,0,0,1-.44,1.3l-4.45,2.37A1,1,0,0,1,194.41,152.36Z" fill="#fff"></path><path d="M236.47,113.66a1,1,0,0,1-.09-2l5.05-.46-1.65-4.33a1,1,0,0,1,1.87-.71l2.12,5.56a1,1,0,0,1-.09.89,1,1,0,0,1-.76.46l-6.36.58Z" fill="#fff"></path></g></svg>